<mxfile host="app.diagrams.net" modified="2024-05-24T06:44:09.526Z" agent="Mozilla/5.0 (Windows NT 10.0; Win64; x64) AppleWebKit/537.36 (KHTML, like Gecko) Chrome/124.0.0.0 Safari/537.36" version="24.4.6" etag="MqfYX4vs72T7MHqkv-u8" type="github">
  <diagram name="Page-1" id="1Vq-He5GiDHcYE6O1fys">
    <mxGraphModel>
      <root>
        <mxCell id="0" />
        <mxCell id="1" parent="0" />
      </root>
    </mxGraphModel>
  </diagram>
</mxfile>
